PathFileType	4	(X/Y/Z)	Kaydara																																																																																																																																																																																																																												
DataRate	CameraRate	NumFrames	NumMarkers	Units	OrigDataRate	OrigDataStartFrame	OrigNumFrames																																																																																																																																																																																																																								
60	60	4	74	mm	60	1756	181																																																																																																																																																																																																																								
Frame#	Time	N_lasi			N_rasi			N_rpsi			N_lpsi			N_fneck			N_bneck			N_fhead			N_rhead			N_lhead			N_rshld			N_relbtop			N_relbext			N_relblow			N_rwrext			N_rwrtop			N_rwrlow			N_lshld			N_lelblow			N_lelbtop			N_lwrext			N_lwrtop			N_lwrlow			N_rtopleg			N_ltopleg			N_rkneefr			N_rkneebk			N_rkneeis			N_lkneefr			N_lknssbk			N_lkneeis			N_rankfr			N_rankis			N_rankbk			N_lankfr			N_lankbk			N_lankis			D_lasi			D_rasi			D_lpsi			D_fneck			D_bneck			D_fhead			D_rhead			D_lhead			D_rshld			D_relbtop			D_relbext			D_relblow			D_rwrext			D_rwrtop			D_rwrlow			D_lshld			D_lelbext			D_lelblow			D_lelbtop			D_lwrext			D_lwrtop			D_lwrlow			D_rtopleg			D_ltopleg			D_rkneefr			D_rkneebk			D_rkneeis			D_lkneefr			D_lknssbk			D_lkneeis			D_rankfr			D_rankis			D_rankbk			D_lankfr			D_lankbk			D_lankis			D_rpsi			N_lelbext		
		X1	Y1	Z1	X2	Y2	Z2	X3	Y3	Z3	X4	Y4	Z4	X5	Y5	Z5	X6	Y6	Z6	X7	Y7	Z7	X8	Y8	Z8	X9	Y9	Z9	X10	Y10	Z10	X11	Y11	Z11	X12	Y12	Z12	X13	Y13	Z13	X14	Y14	Z14	X15	Y15	Z15	X16	Y16	Z16	X17	Y17	Z17	X18	Y18	Z18	X19	Y19	Z19	X20	Y20	Z20	X21	Y21	Z21	X22	Y22	Z22	X23	Y23	Z23	X24	Y24	Z24	X25	Y25	Z25	X26	Y26	Z26	X27	Y27	Z27	X28	Y28	Z28	X29	Y29	Z29	X30	Y30	Z30	X31	Y31	Z31	X32	Y32	Z32	X33	Y33	Z33	X34	Y34	Z34	X35	Y35	Z35	X36	Y36	Z36	X37	Y37	Z37	X38	Y38	Z38	X39	Y39	Z39	X40	Y40	Z40	X41	Y41	Z41	X42	Y42	Z42	X43	Y43	Z43	X44	Y44	Z44	X45	Y45	Z45	X46	Y46	Z46	X47	Y47	Z47	X48	Y48	Z48	X49	Y49	Z49	X50	Y50	Z50	X51	Y51	Z51	X52	Y52	Z52	X53	Y53	Z53	X54	Y54	Z54	X55	Y55	Z55	X56	Y56	Z56	X57	Y57	Z57	X58	Y58	Z58	X59	Y59	Z59	X60	Y60	Z60	X61	Y61	Z61	X62	Y62	Z62	X63	Y63	Z63	X64	Y64	Z64	X65	Y65	Z65	X66	Y66	Z66	X67	Y67	Z67	X68	Y68	Z68	X69	Y69	Z69	X70	Y70	Z70	X71	Y71	Z71	X72	Y72	Z72	X73	Y73	Z73	X74	Y74	Z74
																																																																																																																																																																																																																															
136	29.25	-530.83649	1236.19789	-90.26648	-502.92049	1256.08673	-318.24926	-236.97655	1227.07802	-357.94659	-272.98435	1221.23535	-10.68514	-402.98435	1611.23535	-189.68514	-235.60349	1665.49393	-178.5413	-433.52047	1803.97507	-194.26338	-239.31087	1770.13733	-245.17433	-294.62927	1777.34756	-98.38036	-251.54694	1645.28107	-360.07885	-278.99078	1625.54443	-631.80466	-353.29899	1572.23938	-626.45851	-347.04575	1672.13364	-591.92989	-466.41666	1749.41849	-896.95374	-509.52251	1752.96524	-875.44495	-523.14541	1710.14313	-858.01163	-258.80424	1604.67743	21.80326	-281.32448	1577.78671	281.81259	-273.37673	1494.34372	300.60635	-433.4193	1683.75641	541.28071	-399.00177	1716.83014	546.28899	-406.75701	1738.35037	495.9156	-402.45911	1053.6264	-451.2299	-374.13944	1012.92038	38.08745	-430.67936	562.16682	-266.00258	-323.02979	577.76974	-332.53136	-369.49257	565.21904	-172.0306	-382.56405	540.47104	-105.68534	-256.54406	556.77341	-46.05455	-257.47852	547.06585	-195.37271	-296.3946	138.75576	-272.35508	-299.09475	154.03502	-192.74111	-216.93346	141.40628	-216.95517	-333.12984	192.81855	-121.02579	-260.21	186.17878	-77.88899	-296.21	165.17878	-161.88899	-463.3741	1037.26624	1742.59277	-427.11525	1055.60356	1455.85159	-264.26691	1131.08528	1746.12823	-413.8995	1567.40829	1588.01895	-273.00724	1588.03329	1595.66315	-432.56123	1787.33429	1588.79166	-276.35628	1724.2894	1514.30206	-286.96451	1722.02393	1668.66074	-328.91998	1561.80435	1427.83859	-396.24546	1440.59753	1147.01157	-441.16997	1474.59274	1196.66908	-346.00338	1498.86414	1188.03932	-472.88757	1719.78058	1161.66672	-416.11446	1732.26624	1153.2988	-407.24625	1715.50827	1203.86574	-321.00182	1562.56973	1788.1868	-413.29033	1462.84286	2043.24692	-325.85846	1525.87646	2038.0632	-334.80129	1446.50604	2048.46039	-363.40305	1505.75958	2299.86359	-395.74883	1534.28452	2290.75073	-434.15146	1503.87527	2277.16537	-333.84621	1004.60167	1409.64203	-322.57774	1009.61143	1809.44839	-374.73591	455.31628	1450.36835	-274.9494	490.9066	1422.95715	-282.5881	458.36906	1543.75916	-358.93154	448.07678	1770.91461	-246.46877	486.12026	1787.06833	-318.09727	443.9082	1679.71405	-324.18594	130.32417	1417.71057	-295.10014	126.57903	1482.67303	-243.79789	127.94599	1418.26141	-323.39458	134.93942	1792.35901	-250.71665	124.97253	1806.42334	-294.04222	124.10842	1732.96432	-236.83846	1145.29503	1528.64426	-357.13638	1512.5209	283.36954
137	29.267	-530.81074	1235.75745	-90.22278	-503.04756	1256.01456	-318.09723	-237.01351	1227.15958	-357.79591	-272.98687	1221.2294	-10.55692	-402.98687	1611.2294	-189.55692	-235.78207	1665.46448	-177.88437	-433.79433	1804.13544	-193.54294	-239.39596	1770.70175	-244.14967	-295.02773	1777.39227	-97.5692	-252.8754	1645.10178	-360.63046	-280.15512	1623.36212	-632.17873	-353.98193	1568.92792	-627.12364	-349.2057	1669.57932	-593.6869	-457.01412	1739.76654	-905.40283	-501.32908	1742.21619	-886.37802	-514.41681	1698.96744	-869.93042	-258.61242	1604.31366	22.84329	-282.50574	1577.54593	281.53965	-276.69775	1494.14886	301.85986	-438.09689	1700.07538	528.39996	-401.94592	1730.34027	535.31658	-403.55419	1751.25702	484.52534	-402.40177	1053.7468	-451.38039	-374.01752	1012.84103	38.1207	-430.66341	562.12261	-265.92896	-323.00732	577.76665	-332.43248	-369.36546	565.20264	-171.98463	-382.43225	540.49416	-105.55922	-256.49746	556.8111	-45.98021	-257.41894	547.06005	-195.33001	-296.40182	138.77292	-272.3225	-299.09348	154.02304	-192.72812	-216.91729	141.39986	-216.92785	-333.08609	192.84807	-120.96014	-260.11463	186.24142	-77.7492	-296.11463	165.24142	-161.7492	-463.53672	1037.24777	1742.65106	-427.24857	1055.65468	1455.97931	-264.44698	1131.1129	1746.19247	-413.95298	1567.36862	1588.01544	-273.07104	1588.09906	1595.9024	-432.86842	1787.27951	1588.59665	-276.49426	1724.31229	1514.26147	-287.25647	1722.21344	1668.64944	-329.03511	1562.11105	1428.00674	-393.8633	1439.34311	1146.93924	-439.64668	1472.88834	1196.34445	-344.71657	1498.45261	1188.06053	-474.78699	1717.24625	1160.78659	-418.17852	1730.80795	1152.92435	-409.53247	1714.20609	1203.55164	-321.04298	1562.00043	1788.69965	-412.77824	1461.78909	2043.21106	-324.67525	1524.02496	2038.40225	-334.56635	1444.72137	2048.81149	-365.09666	1505.21072	2299.99847	-396.65718	1534.42047	2290.5838	-435.58495	1504.80194	2276.49445	-333.93532	1004.58755	1409.63989	-322.68974	1009.63753	1809.59946	-374.57428	455.51605	1450.13412	-274.96189	490.94059	1422.95044	-282.55264	458.34187	1543.78418	-359.0757	448.05901	1770.89462	-246.60229	486.14128	1787.09808	-318.13446	443.95004	1679.64752	-324.20452	130.33449	1417.70966	-295.11148	126.53565	1482.65411	-243.80142	127.96706	1418.21274	-323.42155	134.95006	1792.34741	-250.78716	124.97232	1806.35895	-294.05334	124.15672	1732.9483	-236.99978	1145.2681	1528.72391	-359.57413	1514.31732	283.11321
138	29.283	-530.78369	1235.33066	-90.13741	-503.28373	1255.91774	-318.00932	-237.09225	1227.30125	-357.65106	-272.93758	1221.17271	-10.47613	-402.93758	1611.17271	-189.47613	-236.14399	1665.44617	-177.30026	-434.02592	1804.26498	-192.83216	-239.83057	1770.47241	-243.44566	-295.17637	1777.42889	-96.9007	-254.22289	1645.01526	-361.20049	-281.07641	1621.19171	-632.69096	-354.8978	1566.11099	-627.70374	-351.12034	1667.46078	-595.44903	-445.99537	1730.67596	-913.57491	-491.35628	1732.67166	-897.02682	-504.66385	1689.3602	-881.05118	-259.63154	1603.38959	23.64116	-283.66812	1577.67242	281.08643	-280.23497	1494.37561	302.95713	-440.97801	1716.29791	514.85416	-403.51337	1743.91876	523.74176	-399.48948	1763.58521	472.60994	-402.42008	1053.94913	-451.63364	-373.51536	1012.50008	38.04951	-430.67032	562.0977	-265.83584	-323.03398	577.74494	-332.3774	-369.37195	565.21904	-171.90573	-382.28779	540.52086	-105.48599	-256.36595	556.80874	-45.97943	-257.34905	547.07588	-195.31042	-296.44091	138.77472	-272.29136	-299.10578	154.05676	-192.66682	-216.92698	141.40047	-216.91801	-333.04066	192.88326	-120.84574	-260.08192	186.26951	-77.66645	-296.08192	165.26951	-161.66645	-463.6734	1037.26173	1742.67136	-427.41665	1055.69191	1456.13312	-264.60833	1131.1496	1746.27731	-414.03645	1567.38297	1588.09464	-273.18562	1588.2254	1596.24878	-433.1292	1787.2493	1588.5817	-276.67929	1724.33182	1514.39697	-287.50322	1722.39853	1668.75992	-329.13975	1562.50778	1428.26935	-390.47531	1437.67197	1147.23663	-437.30042	1470.42358	1195.85693	-342.98759	1497.91626	1188.35335	-477.22202	1713.83102	1159.32167	-420.87833	1728.54904	1152.24434	-412.62451	1712.46719	1203.1488	-320.89722	1561.06293	1789.17282	-412.05124	1460.59143	2043.26492	-323.55671	1521.9194	2038.70956	-333.94718	1442.6503	2049.31656	-367.43771	1505.07996	2300.22964	-398.15792	1535.07538	2290.20386	-437.52247	1506.52161	2275.78079	-334.10896	1004.58107	1409.65286	-322.87334	1009.70413	1809.67361	-374.68719	455.37601	1450.44342	-274.94574	490.9441	1422.93457	-282.49559	458.39458	1543.73947	-359.27547	448.09441	1770.85159	-246.7861	486.16379	1787.03094	-318.27972	443.97434	1679.62463	-324.14543	130.3102	1417.84439	-295.10916	126.58451	1482.64328	-243.85431	127.98459	1418.15826	-323.43781	135.00165	1792.33505	-250.82129	125.0176	1806.4151	-294.11802	124.15387	1732.96921	-237.1455	1145.29869	1528.86078	-362.22992	1516.59027	282.81218
139	29.3	-530.77042	1234.97421	-90.01029	-503.52261	1255.94101	-317.89324	-237.25786	1227.43065	-357.53922	-272.92885	1221.11526	-10.34721	-402.92885	1611.11526	-189.34721	-236.6654	1665.33768	-176.67936	-434.18285	1804.40582	-192.18067	-240.06826	1770.49606	-242.14514	-295.64297	1777.36496	-95.90805	-255.59717	1645.05249	-361.88953	-282.0817	1618.8028	-633.13274	-356.01337	1563.51074	-628.20351	-352.63775	1665.78751	-597.28981	-433.40897	1722.01141	-921.15417	-479.804	1724.21448	-907.01904	-493.99918	1681.13312	-891.03523	-260.03376	1603.07693	24.32679	-284.81974	1577.98431	280.41985	-284.05884	1495.06638	304.07883	-442.48535	1732.27005	500.48	-403.82633	1757.39868	511.79134	-394.51336	1775.23422	460.64392	-402.48154	1054.28291	-451.90075	-373.20759	1012.32758	38.00783	-430.66429	562.08458	-265.77339	-323.1028	577.73048	-332.37972	-369.30893	565.28973	-171.84128	-382.16007	540.5415	-105.4367	-256.23489	556.7955	-45.98722	-257.29431	547.06268	-195.3297	-296.47369	138.76628	-272.26906	-299.06332	154.03069	-192.64706	-216.90432	141.40348	-216.93466	-332.98878	192.9114	-120.78832	-260.00891	186.2812	-77.65921	-296.00891	165.2812	-161.65921	-463.74969	1037.28752	1742.72919	-427.7816	1055.69153	1456.41571	-264.71418	1131.16547	1746.30356	-414.13292	1567.42249	1588.25607	-273.35117	1588.4021	1596.6954	-433.47496	1787.26608	1588.63922	-276.88721	1724.34235	1514.71985	-287.94579	1722.74231	1669.16534	-329.25457	1562.64862	1428.51868	-386.07746	1435.60959	1147.62131	-434.4775	1467.22824	1195.29076	-340.76893	1497.02698	1188.88153	-480.23632	1709.04877	1157.49504	-424.32476	1725.40588	1151.36177	-416.71219	1709.46869	1202.30034	-321.07014	1560.14694	1789.93576	-411.18832	1458.70331	2043.33481	-322.39567	1519.35669	2039.38034	-333.28022	1440.298	2050.18646	-370.13023	1504.82361	2300.41977	-399.58717	1536.0022	2289.58786	-440.47474	1509.51416	2273.90167	-334.40063	1004.62959	1409.55917	-322.99992	1009.74304	1809.73358	-374.72321	455.27504	1450.65964	-274.96302	490.96951	1422.85172	-282.52354	458.36796	1543.53546	-359.48563	448.1237	1770.81284	-246.99425	486.16379	1787.01309	-318.48429	444.02912	1679.64737	-324.17587	130.33692	1417.88162	-295.08194	126.63235	1482.55508	-243.91317	128.02586	1418.09677	-323.54507	134.94041	1792.25449	-250.9091	125.02012	1806.34308	-294.2001	124.20485	1732.95242	-237.40295	1145.3231	1528.88535	-364.95377	1519.39117	282.26961
